<svg xmlns="http://www.w3.org/2000/svg" width="128" height="128" fill="none" viewBox="0 0 128 128" id="edit-robot">
  <path stroke="#000" stroke-width="7" d="M106.733 35.1899C110.569 31.3541 110.569 25.1351 106.733 21.2994V21.2994C102.898 17.4636 96.6787 17.4636 92.843 21.2994L29.9519 84.1904C28.1624 85.98 27.2676 86.8747 26.6279 87.9511C25.9881 89.0274 25.6297 90.241 24.913 92.6681L21.5742 103.974C21.1149 105.529 20.8852 106.307 21.3055 106.727C21.7258 107.148 22.5034 106.918 24.0587 106.459L35.3647 103.12C37.7919 102.403 39.0055 102.045 40.0818 101.405C41.1581 100.765 42.0529 99.8705 43.8424 98.0809L106.733 35.1899Z"></path>
  <path stroke="#000" stroke-linecap="round" stroke-width="7" d="M89 97L89 95M100 97L100 95M94 84L94 79"></path>
  <rect width="31" height="22" x="79" y="85" stroke="#000" stroke-width="7" rx="9"></rect>
</svg>
